<svg width="22" height="18" viewBox="0 0 22 18" fill="none" xmlns="http://www.w3.org/2000/svg">
<path d="M0.166504 2.49967C0.166504 1.92504 0.394777 1.37394 0.801106 0.96761C1.20743 0.561281 1.75853 0.333008 2.33317 0.333008H19.6665C20.2411 0.333008 20.7922 0.561281 21.1986 0.96761C21.6049 1.37394 21.8332 1.92504 21.8332 2.49967V15.4997C21.8332 16.0743 21.6049 16.6254 21.1986 17.0317C20.7922 17.4381 20.2411 17.6663 19.6665 17.6663H2.33317C1.75853 17.6663 1.20743 17.4381 0.801106 17.0317C0.394777 16.6254 0.166504 16.0743 0.166504 15.4997V2.49967ZM3.97875 2.49967L10.9998 8.64326L18.0209 2.49967H3.97875ZM19.6665 3.93942L11.7138 10.8988C11.5162 11.0718 11.2625 11.1673 10.9998 11.1673C10.7372 11.1673 10.4835 11.0718 10.2859 10.8988L2.33317 3.93942V15.4997H19.6665V3.93942Z" fill="#678EF0"/>
</svg>
