<svg width="326" height="119" viewBox="0 0 326 119" fill="none" xmlns="http://www.w3.org/2000/svg">
<g clip-path="url(#clip0_3102_2132)">
<path fill-rule="evenodd" clip-rule="evenodd" d="M159.455 109.691C274.889 99.397 312.14 18.3726 314.956 -13.5886L305.044 -14.4111C302.609 13.2284 268.75 89.9597 158.622 99.7808L159.455 109.691ZM-34.8505 24.3299C-18.4819 49.7433 36.1211 110.96 136.974 110.732L137.003 100.782C40.6422 101 -11.2361 42.5748 -26.4772 18.9119L-34.8505 24.3299Z" fill="#A7D6C3"/>
</g>
<g clip-path="url(#clip1_3102_2132)">
<path fill-rule="evenodd" clip-rule="evenodd" d="M159.455 109.691C274.889 99.397 312.14 18.3726 314.956 -13.5886L305.044 -14.4111C302.609 13.2284 268.75 89.9597 158.622 99.7808L159.455 109.691ZM-34.8505 24.3299C-18.4819 49.7433 36.1211 110.96 136.974 110.732L137.003 100.782C40.6422 101 -11.2361 42.5748 -26.4772 18.9119L-34.8505 24.3299Z" fill="#37A477"/>
</g>
<defs>
<clipPath id="clip0_3102_2132">
<rect width="180" height="119" fill="white" transform="matrix(-1 0 0 1 326 0)"/>
</clipPath>
<clipPath id="clip1_3102_2132">
<rect width="146" height="119" fill="white" transform="matrix(-1 0 0 1 146 0)"/>
</clipPath>
</defs>
</svg>
