<svg width="291" height="119" viewBox="0 0 291 119" fill="none" xmlns="http://www.w3.org/2000/svg">
<g clip-path="url(#clip0_3102_2142)">
<path fill-rule="evenodd" clip-rule="evenodd" d="M166.545 109.691C51.1107 99.397 13.8601 18.3726 11.0443 -13.5886L20.956 -14.4111C23.391 13.2284 57.2503 89.9597 167.378 99.7808L166.545 109.691ZM360.851 24.3299C344.482 49.7433 289.879 110.96 189.026 110.732L188.997 100.782C285.358 101 337.236 42.5748 352.477 18.9119L360.851 24.3299Z" fill="#A4D2A8"/>
</g>
<g clip-path="url(#clip1_3102_2142)">
<path fill-rule="evenodd" clip-rule="evenodd" d="M147.22 108.691C31.7855 98.397 -5.46514 17.3726 -8.28093 -14.5886L1.63078 -15.4111C4.06583 12.2284 37.9251 88.9597 148.053 98.7808L147.22 108.691ZM341.525 23.3299C325.157 48.7433 270.554 109.96 169.7 109.732L169.672 99.7823C266.033 99.9999 317.911 41.5748 333.152 17.9119L341.525 23.3299Z" fill="#319C38"/>
</g>
<defs>
<clipPath id="clip0_3102_2142">
<rect width="160.675" height="119" fill="white"/>
</clipPath>
<clipPath id="clip1_3102_2142">
<rect width="130.325" height="119" fill="white" transform="translate(160.675)"/>
</clipPath>
</defs>
</svg>
