<svg xmlns="http://www.w3.org/2000/svg" viewBox="0 0 438.6 330.13"><defs><style>.cls-1{fill:#f0f4f7;}</style></defs><title>right-quotes-icon</title><g id="Layer_2" data-name="Layer 2"><g id="Layer_1-2" data-name="Layer 1"><path class="cls-1" d="M236.78,243.37q0,36.06,28.18,62,27.06,24.78,68.78,24.79,48.48,0,76.67-33.8t28.19-80q0-104.79-57.51-157.74T253.69,0V76.62q33.82,3.38,64.26,27,29.32,23.66,31.57,59.71a54.74,54.74,0,0,0-24.8-5.63q-41.72,0-64.27,23.66Q236.78,205.05,236.78,243.37ZM0,243.37q0,36.06,28.19,62Q55.25,330.12,97,330.13q48.49,0,76.67-33.8,27.08-33.81,27.06-80,0-104.79-56.37-157.74Q86.81,5.64,16.91,0V76.62q33.83,3.38,64.27,27,29.31,23.66,31.57,59.71A54.77,54.77,0,0,0,88,157.74q-41.73,0-64.27,23.66Q0,205.05,0,243.37Z"/></g></g></svg>