<svg xmlns="http://www.w3.org/2000/svg" viewBox="0 0 369.57 278.17"><defs><style>.cls-1{fill:#f0f4f7;}</style></defs><title>left-quotes-icon</title><g id="Layer_2" data-name="Layer 2"><g id="Layer_1-2" data-name="Layer 1"><path class="cls-1" d="M170.06,73.1q0-30.37-23.75-52.21Q123.51,0,88.36,0,47.5,0,23.75,28.48T0,95.89Q0,184.18,48.45,228.8t107.36,49.37V213.61q-28.5-2.84-54.15-22.78Q77,170.9,75.05,140.51A46.09,46.09,0,0,0,96,145.26q35.15,0,54.15-19.94Q170.06,105.39,170.06,73.1Zm199.51,0q0-30.37-23.75-52.21Q323,0,287.87,0,247,0,223.26,28.48,200.46,57,200.46,95.89q0,88.29,47.51,132.91,48.45,44.63,107.35,49.37V213.61q-28.5-2.84-54.15-22.78-24.71-19.94-26.6-50.32a46,46,0,0,0,20.9,4.75q35.14,0,54.15-19.94Q369.57,105.39,369.57,73.1Z"/></g></g></svg>